<?xml version="1.0" encoding="UTF-8"?>
<svg width="30px" height="30px" viewBox="0 0 30 30" version="1.1" xmlns="http://www.w3.org/2000/svg" xmlns:xlink="http://www.w3.org/1999/xlink">
    <!-- Generator: Sketch 45.2 (43514) - http://www.bohemiancoding.com/sketch -->
    <title>Group 6</title>
    <desc>Created with Sketch.</desc>
    <defs></defs>
    <g id="Page-1" stroke="none" stroke-width="1" fill="none" fill-rule="evenodd">
        <g id="Artboard" transform="translate(-771.000000, -458.000000)" fill="#FFFFFF">
            <g id="Page-1" transform="translate(572.000000, 458.000000)">
                <g id="Group-6" transform="translate(199.000000, 0.000000)">
                    <path d="M15,0 C6.716,0 0,6.716 0,15 C0,23.284 6.716,30 15,30 C23.284,30 30,23.284 30,15 C30,6.716 23.284,0 15,0 M15,1 C22.72,1 29,7.28 29,15 C29,22.72 22.72,29 15,29 C7.28,29 1,22.72 1,15 C1,7.28 7.28,1 15,1" id="Fill-20"></path>
                    <path d="M13.1289,9.3096 L13.1289,12.2456 L10.1929,12.2456 L10.1929,15.1806 L13.1289,15.1806 L13.1289,22.9856 L16.0649,22.9856 L16.0649,15.1806 L18.9999,15.1806 L18.9999,12.2456 L16.0649,12.2456 L16.0649,10.3106 C16.0649,9.7586 16.5129,9.3436 17.0309,9.3436 L18.9649,9.3436 L18.9649,6.4086 L16.0299,6.4086 C14.4409,6.3736 13.1289,7.6856 13.1289,9.3096" id="Fill-21"></path>
                </g>
            </g>
        </g>
    </g>
</svg>