<?xml version="1.0" encoding="UTF-8"?>
<svg width="30px" height="30px" viewBox="0 0 30 30" version="1.1" xmlns="http://www.w3.org/2000/svg" xmlns:xlink="http://www.w3.org/1999/xlink">
    <!-- Generator: Sketch 45.2 (43514) - http://www.bohemiancoding.com/sketch -->
    <title>Group 5</title>
    <desc>Created with Sketch.</desc>
    <defs></defs>
    <g id="Page-1" stroke="none" stroke-width="1" fill="none" fill-rule="evenodd">
        <g id="Artboard" transform="translate(-724.000000, -458.000000)" fill="#FFFFFF">
            <g id="Page-1" transform="translate(572.000000, 458.000000)">
                <g id="Group-5" transform="translate(152.000000, 0.000000)">
                    <path d="M15,0 C6.716,0 0,6.716 0,15 C0,23.284 6.716,30 15,30 C23.284,30 30,23.284 30,15 C30,6.716 23.284,0 15,0 M15,1 C22.72,1 29,7.28 29,15 C29,22.72 22.72,29 15,29 C7.28,29 1,22.72 1,15 C1,7.28 7.28,1 15,1" id="Fill-13"></path>
                    <g id="Group-4" transform="translate(8.000000, 7.000000)">
                        <path d="M8.3232,14 L8.3232,8.946 C8.3232,8.687 8.3232,8.365 8.3752,8.209 C8.5822,7.628 9.0602,7.047 9.9522,7.047 C11.1042,7.047 11.5822,7.887 11.5822,9.153 L11.5822,14 L14.9032,14 L14.9032,8.842 C14.9032,5.947 13.2732,4.629 11.2192,4.629 C9.5372,4.629 8.5312,5.521 8.3232,6.154 L8.3232,4.681 L5.0542,4.681 C5.1062,5.469 5.0542,14 5.0542,14 L8.3232,14 Z" id="Fill-15"></path>
                        <polygon id="Fill-17" points="0.374 14 3.27 14 3.27 4.681 0.374 4.681"></polygon>
                        <path d="M1.7329,3.5181 C2.8439,3.5181 3.5279,2.8331 3.5279,1.8891 C3.5279,0.9971 2.8539,0.2601 1.7949,0.2601 C0.7369,0.2601 -0.0001,0.9441 -0.0001,1.8891 C-0.0001,2.7811 0.6749,3.5181 1.7329,3.5181" id="Fill-19"></path>
                    </g>
                </g>
            </g>
        </g>
    </g>
</svg>