<?xml version="1.0" encoding="UTF-8"?>
<svg width="104px" height="103px" viewBox="0 0 104 103" version="1.1" xmlns="http://www.w3.org/2000/svg" xmlns:xlink="http://www.w3.org/1999/xlink">
    <!-- Generator: Sketch 45.2 (43514) - http://www.bohemiancoding.com/sketch -->
    <title>4</title>
    <desc>Created with Sketch.</desc>
    <defs></defs>
    <g id="Page-1" stroke="none" stroke-width="1" fill="none" fill-rule="evenodd">
        <g id="Artboard" transform="translate(-778.000000, -437.000000)">
            <g id="4" transform="translate(779.000000, 438.000000)">
                <circle id="Oval-Copy" stroke="#0099DC" fill="#FFFFFF" cx="48.5" cy="52.5" r="48.5"></circle>
                <circle id="Oval" stroke="#0099DC" fill="#FFFFFF" cx="53.5" cy="48.5" r="48.5"></circle>
                <g id="火箭-2" transform="translate(52.992884, 48.293913) rotate(45.000000) translate(-52.992884, -48.293913) translate(32.992884, 14.793913)" fill-rule="nonzero">
                    <path d="M23.8797044,56.8926488 C23.3651163,56.8926488 22.9317791,57.2989025 22.9317791,57.8405742 L22.9317791,61.0906038 C22.9317791,61.6322755 23.3380327,62.0385292 23.8797044,62.0385292 C24.421376,62.0385292 24.8276297,61.6322755 24.8276298,61.0906038 L24.8276298,57.8405742 C24.8276298,57.2989025 24.4213761,56.946816 23.8797044,56.8926488 Z M14.0212809,24.8527725 C12.4504332,26.3965367 11.5837586,28.4278052 11.5837587,30.6486589 C11.5837587,32.896596 12.4233497,34.9820318 14.0212809,36.5528795 C15.5650451,38.0966436 17.6504807,38.9633182 19.8713344,38.9633182 C22.0921881,38.9633182 24.1505403,38.0966436 25.7213879,36.5528795 C28.8901668,33.3570169 28.9172504,28.1298858 25.8026386,24.8527725 C22.5255253,21.6298264 17.2442271,21.6298264 14.0212809,24.8527725 Z M24.4755432,35.3070348 C23.2567821,36.5257959 21.6046836,37.2028855 19.8713344,37.2028854 C18.1109017,37.2028854 16.4858868,36.5257959 15.2671257,35.3070348 C14.0212809,34.0611901 13.3441914,32.4090916 13.3441914,30.6486589 C13.3441914,28.9153097 14.0212809,27.3173784 15.2671257,26.0986173 C16.540054,24.825689 18.219236,24.175683 19.898418,24.175683 C21.5776,24.175683 23.2567821,24.7986054 24.5297104,26.0715337 C27.0213998,28.6444739 26.9943163,32.7882617 24.4755432,35.3070348 L24.4755432,35.3070348 Z" id="Shape" fill="#003076"></path>
                    <path d="M37.8819158,32.9225571 C37.0152412,31.3374694 35.9048143,29.9505175 34.5777189,28.8937923 C34.5777189,23.2469171 33.3047906,17.6000418 30.9756026,12.5475745 C28.6132751,7.55377786 25.2128482,3.40768103 21.1171791,0.527325471 C21.0359284,0.461280109 20.9546776,0.428257473 20.8463433,0.395234838 C20.0880031,-0.00103715134 19.2754956,0.0319855754 18.6254897,0.527325471 C14.5629526,3.33425176 11.1504214,7.49510719 8.71289911,12.5475745 C6.35662754,17.4679512 5.11078286,23.1478491 5.11078278,28.9598377 C3.78368735,29.9835402 2.6461769,31.4035147 1.8065859,33.0546478 C0.641991896,35.1020528 0.0190695926,37.5787525 0.0190695926,40.2866108 C0.0190695926,43.2256278 0.750326282,45.9665088 2.13158891,48.2120497 C3.48576798,50.4575907 5.40870223,52.2077919 7.54830511,53.1324264 C7.81914092,53.264517 8.11706029,53.264517 8.36081255,53.264517 C9.71499162,53.264517 10.8254184,51.9766332 10.8254184,50.3915455 C10.8254184,50.0282962 10.852502,49.6320242 10.9337527,49.2357522 C11.6379259,50.3585227 12.3962661,51.3822253 13.2087735,52.2738371 C13.6691944,52.9012678 14.3192003,53.264517 15.0233734,53.264517 L24.8005461,53.264517 C25.4505521,53.264517 26.0463909,52.967313 26.4526446,52.4719731 C27.1839013,51.6133839 27.9151579,50.6227041 28.7547489,49.4008656 C28.8089161,49.7641148 28.8630833,50.1603868 28.8901669,50.5236361 C28.8901669,50.6557267 28.9172504,50.7878174 28.9443341,50.919908 L28.9443341,51.018976 C28.9443341,51.118044 28.9714176,51.2501346 28.9985012,51.3492026 C29.3505878,52.5710411 30.3255966,53.363585 31.3276891,53.363585 C31.5714414,53.363585 31.8151936,53.3305624 32.0589458,53.2314944 C34.306883,52.3068599 36.2298173,50.5896814 37.5839964,48.2780951 C38.9110918,46.032554 39.6423485,43.3577184 39.6965157,40.4847467 L39.6965157,40.3526561 C39.6965157,37.6778205 39.0735933,35.1020528 37.8819158,32.9225571 L37.8819158,32.9225571 Z M36.1756501,46.9902112 C35.0381398,48.9385482 33.4131249,50.3915454 31.5172743,51.1510666 C31.2464385,51.2501346 30.8672683,51.0850213 30.7047668,50.6887494 C30.7047668,50.622704 30.6776833,50.5566587 30.6776832,50.5236361 C30.6776832,50.4906135 30.6776832,50.4575907 30.6505996,50.4245681 L30.6505996,50.3915455 C30.5964324,49.3017976 30.3797638,48.1460044 30.0547609,47.1223019 L29.9464265,46.7260299 C29.8651758,46.3627807 29.5943399,46.0655767 29.2964206,45.9995314 C28.9985012,45.933486 28.6734982,46.032554 28.4568296,46.3297579 C28.1589102,46.7260299 27.8880744,47.1883472 27.6443221,47.6506645 C26.7776476,49.0045936 26.0193073,50.0613188 25.260967,50.919908 L25.2338834,50.9529307 C25.0984656,51.118044 24.8817969,51.1510667 24.8005461,51.1510666 L15.0233734,51.1510666 C14.8067048,51.1510666 14.6442033,51.0519986 14.5087854,50.8538627 L14.4275347,50.7547947 C13.6150272,49.8631828 12.8837706,48.8394803 12.1525139,47.6506645 C11.881678,47.2543925 11.6650094,46.8250979 11.4212572,46.3958033 C11.2587557,46.0985993 10.9608363,45.9004634 10.6629169,45.933486 C10.3649976,45.9665087 10.0941617,46.1646447 9.93166024,46.4948713 L9.74207517,46.9241659 C9.71499162,46.9571886 9.71499162,46.9902113 9.71499154,47.0232339 C9.44415573,47.8157778 9.1191528,49.0045937 9.1191528,50.3915455 C9.1191528,50.7878175 8.79414979,51.1510667 8.38789611,51.1510666 L8.19831104,51.1510666 C6.35662754,50.3585227 4.73161266,48.872503 3.56701873,46.9571886 C2.40242472,45.0748968 1.80658598,42.7633105 1.8065859,40.2866108 C1.8065859,38.0410698 2.32117397,35.9276194 3.29618291,34.2764863 C3.29618291,34.2434636 3.32326647,34.2434636 3.32326647,34.2104409 C4.08160672,32.7244211 5.21911717,31.370492 6.43787829,30.5119027 C6.70871411,30.3137667 6.89829917,29.9835401 6.89829917,29.5872682 L6.89829917,28.9928603 C6.89829917,23.544121 8.06289317,18.2604951 10.2837468,13.6373224 C12.531684,8.9150817 15.7546301,5.01840753 19.5463314,2.40961724 C19.5463314,2.40961724 19.573415,2.40961724 19.5734151,2.37659451 C19.8171673,2.17845852 20.1150867,2.31054915 20.2775881,2.40961724 C20.3317553,2.44263987 20.3859224,2.4756626 20.4400896,2.47566251 C24.1776238,5.15049816 27.3193192,8.98112697 29.5130893,13.6042997 C31.6797758,18.2604952 32.8443697,23.4780758 32.8985369,28.728679 C32.8714533,28.8607696 32.8443697,28.9598376 32.8443697,29.0919283 L32.8443697,29.422155 C32.8443697,29.7854042 33.0068712,30.1486535 33.277707,30.3467895 C34.5506353,31.271424 35.6610622,32.5593079 36.5006532,34.0783503 C37.5027457,35.9276193 38.0444173,38.0740924 38.0444173,40.2866108 L38.0444173,40.3856787 C37.9089994,42.8293558 37.286077,45.1079194 36.1756501,46.9902112 L36.1756501,46.9902112 Z M15.7546301,54.8496048 C15.2671257,54.8496048 14.8067048,55.3449447 14.8067048,56.005398 L14.8067048,59.9681175 C14.8067048,60.5625254 15.2129585,61.0578654 15.7546301,61.0578654 C16.2963017,61.1239107 16.7025554,60.6285707 16.7025554,59.9681175 L16.7025554,56.005398 C16.7025554,55.3449448 16.2963017,54.8496049 15.7546301,54.8496048 Z M19.8442509,54.9156502 C19.3025793,54.9156502 18.8963256,55.4109901 18.8963255,56.0714433 L18.8963255,65.1196528 C18.8963255,65.7140607 19.3025792,66.2094007 19.8442509,66.2094007 C20.3859226,66.2094007 20.7921762,65.7140608 20.7921762,65.0536074 L20.7921762,56.0384207 C20.738009,55.3449448 20.3317553,54.8496048 19.8442509,54.9156502 L19.8442509,54.9156502 Z" id="Shape" fill="#003076"></path>
                    <path d="M19.8442509,26.6132053 C17.5963137,26.6132053 15.7546302,28.4548888 15.7546301,30.7028261 C15.75463,32.9507633 17.5963136,34.7924467 19.8442509,34.7924467 C22.0921881,34.7924467 23.9338716,32.9507632 23.9338716,30.7028261 C23.9338716,28.3736381 22.1192716,26.5590382 19.8442509,26.6132053 L19.8442509,26.6132053 Z" id="Shape" fill="#0099DC"></path>
                </g>
            </g>
        </g>
    </g>
</svg>